
<global>
amp_veltrack=0
ampeg_attack=0.01
ampeg_release=0.35
</global>

<group>
group_label=PP
lpc_hicc1=42
lpc_locc1=0

<region>
hivel=127
key=A#3
loop_end=290515
loop_mode=loop_continuous
loop_start=78454
loop_xfade=56004
lovel=0
lpc=arEqQddF5MFgSgZCkRu5wWEySkGIbC3Bsx0vQa7DAcEct39AwU5Av+1U9L4Aw8Q9YXGSPnwiVL6B0Lw/1u/tv562Mb/v14BAeIdjwDQhnj4yo3m+gjpNQC9ZkMDIVQVA
lpc_rms=-33.13
sample=Violin2Solo_sustain_PP_A#3.opus
</region>

<region>
hivel=127
key=A#4
loop_end=282860
loop_mode=loop_continuous
loop_start=76386
loop_xfade=54529
lovel=0
lpc=u6wSQfpq1MGj7BVCZcwHwjPMw0H1wJLBu1tuQSbwPMGepiJBFywMwabUjUB5T5E+mfvGv4xCGL50U+A/Lezpv7ku2T+fzei/t2YuQJ4LEsArYZo9hrX6PyoP5b9q2xY/
lpc_rms=-33.40
sample=Violin2Solo_sustain_PP_A#4.opus
</region>

<region>
hivel=127
key=A#5
loop_end=280895
loop_mode=loop_continuous
loop_start=75856
loop_xfade=54150
lovel=0
lpc=8+WXQBR9dsAD8YlAcn0pv2Cv4D/fydW+W6VHQIcL4b/w0VFAIORav0bH9T92o4s+XXa8PwiFCL08PPA/Q7kzPutMhD+tgak/vCEdPha8oj/Xfcg/au4iv69pEkBOr1Q/
lpc_rms=-31.23
sample=Violin2Solo_sustain_PP_A#5.opus
</region>

<region>
hivel=127
key=A#6
loop_end=281566
loop_mode=loop_continuous
loop_start=76037
loop_xfade=54279
lovel=0
lpc=OqLsQA7PmMDPRDpA+KG2v8Knwj/2ncu9izCPPv1jZr8j4CQ/PIOWP14VGD9If70/gDqMv6VIocC8JplAhUUawFARGEB4soe/3MwdP38svz7NwPQ/iwtCvwSv4LuRmAW/
lpc_rms=-35.34
sample=Violin2Solo_sustain_PP_A#6.opus
</region>

<region>
hivel=127
key=A3
loop_end=285099
loop_mode=loop_continuous
loop_start=76991
loop_xfade=54960
lovel=0
lpc=5s4xQWRB/cEcYyJCjKH2wV6TjEF0MUDBWWsqQY88BMFnbHlAdzheP0L8MsAhmd4/qgvuvoyhW71ilKs/O3MCwEYrST9ROnI/LgEvv+EV+71oo8q/9eiXQBw3r8C4MyRA
lpc_rms=-31.45
sample=Violin2Solo_sustain_PP_A3.opus
</region>

<region>
hivel=127
key=A4
loop_end=284452
loop_mode=loop_continuous
loop_start=76816
loop_xfade=54836
lovel=0
lpc=X+4uQe109cHUWCBC+5kOwlq78EHXl8fBd5KGQSMIIsGZ9OhAl+vOwBq2aUDvopg/oddvwLgEYEDXwwbAQ9ELQJRikcC6Fr5AB1CHwPVtiEAitLzA+iKMQAotm7+sZBO9
lpc_rms=-30.64
sample=Violin2Solo_sustain_PP_A4.opus
</region>

<region>
hivel=127
key=A5
loop_end=288077
loop_mode=loop_continuous
loop_start=77795
loop_xfade=55535
lovel=0
lpc=YBj2QK+GGsHnMSZBvFDIwF5ilkDuKte/n+5RQHBmC8CMgGBAZV8dvwmmbT/Lzbq90LjpPxYCrj7HBcs/A0A7P4lCnb7AXZA/xpCmP4exoz6cOoS91f9SQHHmGMD0+UNA
lpc_rms=-30.29
sample=Violin2Solo_sustain_PP_A5.opus
</region>

<region>
hivel=127
key=A6
loop_end=282690
loop_mode=loop_continuous
loop_start=76340
loop_xfade=54496
lovel=0
lpc=WMxUQX3SJcEeEuhAlPBlv3gZxj99D7e/HRImP78ayD1sObK/+g0jQOfVKEBLBkS/M9CGQAgX/8Bc6g7AJ+C9QNwOrcB/xBhAhYqRv0ZhS0Amd0q/5KbUPzYI1D8n6zbA
lpc_rms=-30.07
sample=Violin2Solo_sustain_PP_A6.opus
</region>

<region>
hivel=127
key=B3
loop_end=285807
loop_mode=loop_continuous
loop_start=77182
loop_xfade=55097
lovel=0
lpc=b0xZQfvaJMJIuGhCiv1Nwt3HA0IvZJXBAuxDQVn+HsHueApB4tfcwLXRYkA1Mlg/X46FwLesg0CBfj2/mDdKwDiwm0AjWynAO1o2v9cB9T/CmkPA6UuRQJ63gMDkAcw/
lpc_rms=-29.80
sample=Violin2Solo_sustain_PP_B3.opus
</region>

<region>
hivel=127
key=B4
loop_end=285425
loop_mode=loop_continuous
loop_start=77079
loop_xfade=55023
lovel=0
lpc=phbCQCmQa8GudoxBdU1bwfjHLUF3yA3BsaSrQPngPsBXHThAnvy0v9iA3r6RJSq/aGFuQPEBi8C/2EhA0sD0v7Htbz/S4uY9UtaVvU2ztD3cgo+/DaX2P0z5nb/KcoA+
lpc_rms=-32.23
sample=Violin2Solo_sustain_PP_B4.opus
</region>

<region>
hivel=127
key=B5
loop_end=281009
loop_mode=loop_continuous
loop_start=75887
loop_xfade=54172
lovel=0
lpc=CDf2QKIjxMBKSLJAEkAjwKVIW0Cjq9e/Hkh/QGuOQsDCn4dA+gOUv3CpxD8axcc+4zqrP1zV7j6ZEbk/RP+Mv8ZdgkBIXDLAEi5mQPG7qL94NDhAeTHGv7SfiECsdnjA
lpc_rms=-27.90
sample=Violin2Solo_sustain_PP_B5.opus
</region>

<region>
hivel=127
key=B6
loop_end=279747
loop_mode=loop_continuous
loop_start=75546
loop_xfade=53929
lovel=0
lpc=AlhiQRCyU8GPOAVBXB2zwEHplUD8gga+yTU6QMgZBcBvAPS9N2g4QMjtyD5RBhhApc5ZwcfTKkFEKE7AxA87QGEzj7+0xtK+A427vz/G9T/bH70/IHGzvxAcj78Y5T4/
lpc_rms=-29.89
sample=Violin2Solo_sustain_PP_B6.opus
</region>

<region>
hivel=127
key=C#4
loop_end=274937
loop_mode=loop_continuous
loop_start=74247
loop_xfade=53001
lovel=0
lpc=KcMvQrQKB8M1XjFDgBcLw5oAr0KURYDCu+pZQtzXRMJGtTRCS7EWwiQN9kF4GrHBtnoxQcFL2MA6aoJBCza3wfOzLEEwcQVBCi95wTW6MkHzHwbBDDvHQK0Eh79/8lG/
lpc_rms=-23.53
sample=Violin2Solo_sustain_PP_C#4.opus
</region>

<region>
hivel=127
key=c#5
loop_end=277490
loop_mode=loop_continuous
loop_start=74936
loop_xfade=53494
lovel=0
lpc=+rGNQTLROMJ0NF5CAW0kwu8nv0HyX2PBlnkVQUbUMMH4T1dB0MoPwSTelj/YPc9AYJgfwc7eA0Gu9W7AzdZwQIb10MAVAeBAy/s8wH71UcCClqJAHsGIv2W3JsAFvRtA
lpc_rms=-23.62
sample=Violin2Solo_sustain_PP_C#5.opus
</region>

<region>
hivel=127
key=C#6
loop_end=284212
loop_mode=loop_continuous
loop_start=76751
loop_xfade=54790
lovel=0
lpc=MfiDQXEfccHXoiZBDNffwPi1ukDCk4DACbONQISzU8Duk45AwElPwE8hhECN6VfAzIaRQGNUfsDZOJRAlDxgwMhYmEDDD4XAiEqzQMlLrsCpAwdBw/p0wVOIXkAT0qk/
lpc_rms=-27.53
sample=Violin2Solo_sustain_PP_C#6.opus
</region>

<region>
hivel=127
key=C4
loop_end=290078
loop_mode=loop_continuous
loop_start=78336
loop_xfade=55920
lovel=0
lpc=nqSdQXj3YcJ1/41CQMhZwnGlA0IZTbXBsNiKQaDiRsEBouFAktkLvwZbDcAYSVO82moKQFbfPcAwNa1A1lqKwB6XJL91sDhAgYfMvZgSSsA6mHE+ue3IQP0cB8HaLXRA
lpc_rms=-27.82
sample=Violin2Solo_sustain_PP_C4.opus
</region>

<region>
hivel=127
key=C5
loop_end=278690
loop_mode=loop_continuous
loop_start=75260
loop_xfade=53725
lovel=0
lpc=PhBKQRsLEsKAhERCnJYowpy8+UHRArjBFLNlQWg5HMF6ARNBo+LJwFGZqz6xh5BAwM/LwO70s0BXZpTA/4bVQA9NzMANzd4/WT/0PF0PXkCfHJzAPMxPQGWW0b9EFCU/
lpc_rms=-27.15
sample=Violin2Solo_sustain_PP_C5.opus
</region>

<region>
hivel=127
key=C6
loop_end=279079
loop_mode=loop_continuous
loop_start=75365
loop_xfade=53800
lovel=0
lpc=reyBQR4+NMGikB1BGDfMwJzvekBBolS9Gd8EwK5elUDR9bHASRTUQDKUo8BkSIFAiqZWv3aRyr+VDo5AFx2fwCO1u0B6PZjAaBSGQOYpu78Ttmm/NCmfQEQiCsERQYTA
lpc_rms=-28.89
sample=Violin2Solo_sustain_PP_C6.opus
</region>

<region>
hikey=E7
hivel=127
lokey=C7
loop_end=279775
loop_mode=loop_continuous
loop_start=75553
loop_xfade=53934
lovel=0
lpc=+MCFQRh2WcH+BgBBEkOGwHblhkBZZWU+MDWLP+pjGj9Bm5Q/RmAfQPDZV0CenWXBomKvQDtBdEAB6di/b5dCQL0KHcBcqOE/QJN+PsmFlD+cdJK/rHisv6Gqf0DekQXA
lpc_rms=-29.68
pitch_keycenter=C7
sample=Violin2Solo_sustain_PP_C7.opus
</region>

<region>
hivel=127
key=D#4
loop_end=282783
loop_mode=loop_continuous
loop_start=76366
loop_xfade=54514
lovel=0
lpc=BsCBQXoqOMIsr2RCl6UswiAb0kFo5I3BiAhYQc1AK8GVuPFAygqnwMlZaECz0pS/gAGJviP1O7+hvGZAbkWKwOB7L0Cf2Va/iRefvwKyDkBI9C/AgD+QQJPQqsC+DCVA
lpc_rms=-30.02
sample=Violin2Solo_sustain_PP_D#4.opus
</region>

<region>
hivel=127
key=D#5
loop_end=280387
loop_mode=loop_continuous
loop_start=75719
loop_xfade=54052
lovel=0
lpc=y2nzQL7+l8Gg7LtBJ6iVwbJMVUFbPSTBzMC7QDPGw7+FXY+9A+kAQPchksDjKoNAx3ylPsc/IsCU1ck/GK0Cv9WNMT8L7gS+BXIHv+CxCj/bWYK/gEM6QNMITMAHI9s/
lpc_rms=-29.70
sample=Violin2Solo_sustain_PP_D#5.opus
</region>

<region>
hivel=127
key=D#6
loop_end=277994
loop_mode=loop_continuous
loop_start=75072
loop_xfade=53591
lovel=0
lpc=PPE3QTY2I8HvhQpBenFPwOoDp0AtrNS/YqEUQBmLu7+R7A9Ake2GvxxTB0BYgby/F/g6QCBuEcAwATRAwtqZv3r4/z95V6+/b2BSQDwvN8HkBupAvuRtwLk/hz7pZRLA
lpc_rms=-28.21
sample=Violin2Solo_sustain_PP_D#6.opus
</region>

<region>
hivel=127
key=D4
loop_end=289439
loop_mode=loop_continuous
loop_start=78163
loop_xfade=55797
lovel=0
lpc=yp2yQUzMhsI/ErlC/Maewt5AUELTHg3CZGPUQScjl8Gie1ZBGyNTwd1ZWUErwiPBl0bbQEjyUsCa57I/4ylIwHZ1x0AnZ9jAUWZJQA2YHECLY+LA3uwJQV4AtMBxr7g/
lpc_rms=-28.62
sample=Violin2Solo_sustain_PP_D4.opus
</region>

<region>
hivel=127
key=D5
loop_end=279263
loop_mode=loop_continuous
loop_start=75415
loop_xfade=53835
lovel=0
lpc=AhHOQJk0ecH0aJVBbdhowXtYK0G2xQDBZ2qQQPKnCsD17kg/zT3WP8X3acCwMEtAHJM8vxmkEsAFg6VAX7+twHBcfUCpdDnABT1NQIlpFMC0hje+QoApQP0PHsCl638/
lpc_rms=-32.48
sample=Violin2Solo_sustain_PP_D5.opus
</region>

<region>
hivel=127
key=D6
loop_end=284826
loop_mode=loop_continuous
loop_start=76917
loop_xfade=54908
lovel=0
lpc=uXHrQMyRocA2m4pAf4FkwCBnCkANWyS/fUCJu+N/UD/Sz4O/WjvSP+wRhL/8cyI/AMy8PuaSOb/yxNc/WbDGv2r95D9rmpa/yG1OPxUVjz+SVb/AsOujP/MEhr+o7YQ/
lpc_rms=-34.78
sample=Violin2Solo_sustain_PP_D6.opus
</region>

<region>
hivel=127
key=E4
loop_end=285793
loop_mode=loop_continuous
loop_start=77178
loop_xfade=55094
lovel=0
lpc=XdQaQZHe38FDvxpCs1UKwjfdxkG7HJDBDpZfQd12OsGsEBxBU4nPwP06lT/urDZAuuUAwDOCtb5tJw1Avt5fwBhOeEAm/YXAZjWnQJqor8AplVZA6H0rvw3g7r7xAYU+
lpc_rms=-30.59
sample=Violin2Solo_sustain_PP_E4.opus
</region>

<region>
hivel=127
key=E5
loop_end=279453
loop_mode=loop_continuous
loop_start=75466
loop_xfade=53872
lovel=0
lpc=AEwdQaqLucHxTNpBxq+vweLnjUHUvUbBz+a8QMPwSsDHLEpAyngUwFOL+j8JNFfAp097QOVb6r+615i9BmjdPRDizj+2IArAMtBYQMDxccAW6oRAqhJ4wIM7ckDoi9W/
lpc_rms=-28.88
sample=Violin2Solo_sustain_PP_E5.opus
</region>

<region>
hivel=127
key=E6
loop_end=283710
loop_mode=loop_continuous
loop_start=76616
loop_xfade=54693
lovel=0
lpc=FtZqQR8XX8HZSzxBTyCxwI7noEAfsQFA7kVUP9CPM79q1No/C70yv7HzRz83OhY9eZxmP8wsIb9fFMk/e7wfv+Q41j6BwwhAlr1kwUQeJUEJscPAluqNP5DGWL9JB2zA
lpc_rms=-26.95
sample=Violin2Solo_sustain_PP_E6.opus
</region>

<region>
hivel=127
key=F#4
loop_end=282655
loop_mode=loop_continuous
loop_start=76331
loop_xfade=54489
lovel=0
lpc=1KgdQT2558GcOSFCW8MTwnlh6UG7XK/BGGlSQXSCrsBIKBJAfvbovxRmTT6pA88/krmwv4XMmz+HKC7AypoiQCqUeT5hfeG/fruvPzlA7b+W2CxA4OXlv0rc5z7QHpo9
lpc_rms=-29.67
sample=Violin2Solo_sustain_PP_F#4.opus
</region>

<region>
hivel=127
key=F#5
loop_end=278675
loop_mode=loop_continuous
loop_start=75256
loop_xfade=53722
lovel=0
lpc=9SokQWrfxMFE6PdB40rLwfuomEGedILBxac9QWBUy8C6UZpAbJIOwCX0GMCuudlA57WqwMKaUEC+HIy/Kb8awOlxpUBBPqrAM8G2QKW3yMBXT6pABcgwv/S7KL/OTxo/
lpc_rms=-28.51
sample=Violin2Solo_sustain_PP_F#5.opus
</region>

<region>
hivel=127
key=F#6
loop_end=285226
loop_mode=loop_continuous
loop_start=77025
loop_xfade=54985
lovel=0
lpc=Gzd5Qe4QkMFWqZJBVbM2wYwHD0G3DGHAI5Q+QAzG4b4iogdAATV8P//vIz7EBcM/cA2DP7eCrj8wRQK/B3KFQNyVc8EmWmVBNb8awTHyjECdhbi/ik4Bvz7I4j/pvmm/
lpc_rms=-26.26
sample=Violin2Solo_sustain_PP_F#6.opus
</region>

<region>
hivel=127
key=F4
loop_end=289357
loop_mode=loop_continuous
loop_start=78141
loop_xfade=55781
lovel=0
lpc=ZRwtQcuj98HLQSZCuFgOwmR9w0FUbJPBbudpQWdVMMHsRSBBpE4TwRZls0CM9wXA0bKbP4uW8r/Wh3FAbdOowB0mkUCuSHu/MY1Hv8BYhb/wp3M/fBMFQPfGdcAgRv8/
lpc_rms=-31.87
sample=Violin2Solo_sustain_PP_F4.opus
</region>

<region>
hivel=127
key=F5
loop_end=292641
loop_mode=loop_continuous
loop_start=79028
loop_xfade=56414
lovel=0
lpc=wNDkQIMGgsG2Xp1B75qFwUtnYUEA/ynBmGK1QHYDDcAYfsk//SmWvlpU0L9OjuE/Gtdbv/N4Hz+VETa/8vG7P4t/Kr/qhPW+jugrQMhpK8AFlb0/5raBvoEatj6Elf69
lpc_rms=-33.69
offset=7804
sample=Violin2Solo_sustain_PP_F5.opus
</region>

<region>
hivel=127
key=F6
loop_end=286729
loop_mode=loop_continuous
loop_start=77431
loop_xfade=55275
lovel=0
lpc=S/cbQYYUHcGj0u1AlqbHwJ+FY0CYGD8/66hjvyxrDL8pm5E/7LJwvsxXIz9jKa++FSHvP7aw4L/R+hRAKA3Avz9AGUDBVRzB71v+QGILjMDZHXhAUlK5vp2FLMA9uCVA
lpc_rms=-36.64
offset=13714
sample=Violin2Solo_sustain_PP_F6.opus
</region>

<region>
hivel=127
key=G#3
loop_end=284550
loop_mode=loop_continuous
loop_start=76843
loop_xfade=54855
lovel=0
lpc=gUVOQTFvHcJPDWBCFQtGwrVeAEIFtZ/BDhh7QRypWsE/6iJBhVm6wLVhwz9WGqI/0rSCv1hP6b5OqRBAexCBwEg+jECo5wjApo2bv9UYjUDPtqPAWgo5QN88V7//fE0+
lpc_rms=-29.77
sample=Violin2Solo_sustain_PP_G#3.opus
</region>

<region>
hivel=127
key=G#4
loop_end=292069
loop_mode=loop_continuous
loop_start=78873
loop_xfade=56304
lovel=0
lpc=B7I5QYm0BsIdSDVC3zUXwuOHy0EYsJbBEO5CQYfxmMChoxdAQbYvwGmKEb9zvqFAYeSIwAHTMD4hnE9AktqqwNcb70AYA/zAhGneQE2TqMCo06E/nPeKQItnycCDCSpA
lpc_rms=-32.92
offset=16719
sample=Violin2Solo_sustain_PP_G#4.opus
</region>

<region>
hivel=127
key=G#5
loop_end=287550
loop_mode=loop_continuous
loop_start=77653
loop_xfade=55433
lovel=0
lpc=qvYIQT5HScEwBD1Bq6MAwU8t90B7kJbAezeDQM6aAcDDqB8/LA9RQC4PHMDS8fU/DDcGv4ciAkA8Il2/Fs7oPznBor6xBBg/8nVJvi9NXkBe/DfAkWEHQGveSb/wQCNA
lpc_rms=-28.82
offset=7668
sample=Violin2Solo_sustain_PP_G#5.opus
</region>

<region>
hivel=127
key=G#6
loop_end=283820
loop_mode=loop_continuous
loop_start=76646
loop_xfade=54714
lovel=0
lpc=ZxFlQTJ7gsH7/EVB/PSjwAjo+j/PTL4/jkk6v9YIFL+LNnQ/2wKsP4Uywj798bs/uZB1v3kPlEBRq03Bh4TbQC3rCkA8T7XAA7i6QEvtcsA68NQ/gg6qP0Qo/T7NrSm/
lpc_rms=-28.12
sample=Violin2Solo_sustain_PP_G#6.opus
</region>

<region>
hivel=127
key=G3
loop_end=286852
loop_mode=loop_continuous
loop_start=77464
loop_xfade=55299
lovel=0
lpc=ngVuQRxvJ8JwtVNClbQjwsbKykE1UJHBBK9nQUCgLcE5cupAXjeDwAr6QUAuJQTABWRUP/kuPL9GpSxAFzAbwL0rVL+oPHVASYtkwOBsFj9ueJi+DoCmQLvnBcGft4lA
lpc_rms=-31.25
sample=Violin2Solo_sustain_PP_G3.opus
</region>

<region>
hivel=127
key=G4
loop_end=297729
loop_mode=loop_continuous
loop_start=80402
loop_xfade=57395
lovel=0
lpc=kAQYQefv08Fq4g9C96b+wUQAukF1uYrBeS9SQRt3HME8rvVAgY3DwGOPPkCGWv6+j1Ysv3Oy+z/DpWXAwrdLQLBsTb8FMWe/rFLeP25DqL7iWMG/CR7fP/zyM7+aDBY+
lpc_rms=-32.83
sample=Violin2Solo_sustain_PP_G4.opus
</region>

<region>
hivel=127
key=G5
loop_end=277458
loop_mode=loop_continuous
loop_start=74928
loop_xfade=53487
lovel=0
lpc=ks/KQCR1XsEyZIpBHpJ0we6PU0GT0irBXlwGQVdlqcCkfXBAOBg0wEJdB0CzZBW+OqmCvqMIqzvNIrI/dG3bv+yRCEAzbbe/4NOOP/qhij9nzEPARi+PQHISZsDD7QVA
lpc_rms=-30.04
sample=Violin2Solo_sustain_PP_G5.opus
</region>

<region>
hivel=127
key=G6
loop_end=284942
loop_mode=loop_continuous
loop_start=76949
loop_xfade=54930
lovel=0
lpc=xjI5QY9pJMF429ZAPqeQwJI9jEAGz5q/VoYfQH8QhsCQoghAzfp9v152G0B+MQDA57JaQNBhIMBIe5RAuexCwcqh6UBTi/K/G4OrPyY+CLwIO3S/tfnDvsx6IUDo4Fc/
lpc_rms=-31.04
sample=Violin2Solo_sustain_PP_G6.opus
</region>
</group>

<group>
group_label=MF
lpc_hicc1=84
lpc_locc1=43

<region>
hivel=127
key=A#3
loop_end=286742
loop_mode=loop_continuous
loop_start=77435
loop_xfade=55277
lovel=0
lpc=Uo7nQNRwo8FsEedBylHYwdS3nkHcqlbBVqYUQd/Z4cAcF7dAD+OSwDBiOkDyRlq/t1ukv6S3G0CsLZe/2ct+v/b69j+UN3i/z6CdPnfZqr5x48e+9NfVPwby279/dBE/
lpc_rms=-27.63
sample=Violin2Solo_sustain_MF_A#3.opus
</region>

<region>
hivel=127
key=A#4
loop_end=282942
loop_mode=loop_continuous
loop_start=76409
loop_xfade=54545
lovel=0
lpc=Gvn1QMgJnMF3cb1Bm3eUwUq7KEGtQ5XAd22EP9mTu7tQPxFAxWhqwNHrGUAL/DE+sDP9v9E/5z9pG4e9r/svwMGTkkBQ1UzA8WMAQIKylr+nxgG/zbz+P5yeG8Aj6o4/
lpc_rms=-27.08
sample=Violin2Solo_sustain_MF_A#4.opus
</region>

<region>
hivel=127
key=A#5
loop_end=282915
loop_mode=loop_continuous
loop_start=76401
loop_xfade=54539
lovel=0
lpc=iMOaQOpKTcAxdGhAP0+oPqyxmj/++NY+ORIlQAU5R7/G9h9AkL3Tu6H5CkAHq5M90QbvP7REOj/LUYE/ZlKOPx+lkz8YXY8/u0JMP3oDej/CXAVA84fevkr7AUCiH6o/
lpc_rms=-26.93
sample=Violin2Solo_sustain_MF_A#5.opus
</region>

<region>
hivel=127
key=A#6
loop_end=267528
loop_mode=loop_continuous
loop_start=72246
loop_xfade=51573
lovel=0
lpc=3EVIQUHiK8HB+cRAV6VIv0f8IEBsb8bA+CSkQKLxIsAZjkm/QpO1QMzYo78piDRAfZ//v7z4EsH7HRtBMcaTwBDSiT9RgNe/cPfiQF8CqcATrZBA8hKWvnieTsB9mds8
lpc_rms=-26.38
sample=Violin2Solo_sustain_MF_A#6.opus
</region>

<region>
hivel=127
key=A3
loop_end=285252
loop_mode=loop_continuous
loop_start=77032
loop_xfade=54990
lovel=0
lpc=EEz3QAcurcE86PFBISDjwbjLpEEHvFnBdYkgQSbjAMFX7spAxFmUwPfYF0DMGhQ/sGIfwFVYQECYhBDAn9odP5u6XD7y1IA/d6wNwHdxJEBDSw7As3i2PysgPr8w8Kw+
lpc_rms=-28.94
sample=Violin2Solo_sustain_MF_A3.opus
</region>

<region>
hivel=127
key=A4
loop_end=286828
loop_mode=loop_continuous
loop_start=77458
loop_xfade=55294
lovel=0
lpc=RZXpQM76ksG4n7FB2iSDwTpQE0FvubLAkmh1QCBHL8DDqS5A13w1wHL+CECsAtG/UpG9PwFuS78iD48/Gg4XwAh1K0BH8ry/H2ucPiip4z5LbSe9JqvDvwytPEDC4Oe/
lpc_rms=-25.98
sample=Violin2Solo_sustain_MF_A4.opus
</region>

<region>
hivel=127
key=A5
loop_end=278711
loop_mode=loop_continuous
loop_start=75266
loop_xfade=53729
lovel=0
lpc=qU/HQETI4cBrivVA4jCLwPR8i0DNOcy/DhUhQDsOKL9trYw//njiP1ldZ794DvY/M3AxP3QSjr3BteU/vYRePlTMbz89HqY+uq4CQEhTKb8aXrM/X8mDP6dWGL8b5i1A
lpc_rms=-20.80
sample=Violin2Solo_sustain_MF_A5.opus
</region>

<region>
hivel=127
key=A6
loop_end=276018
loop_mode=loop_continuous
loop_start=74539
loop_xfade=53210
lovel=0
lpc=hAhgQaZrLcE1JudAlMH6vo5LqD6K+Oc/MarYv+uTiT4KtN8+RlrhPxsEV0DP5QLADQa5QLGXEsHTRSbAd7bpQMr45sAlGpxAZcRawJWIH0ChuLY/ALtHu58EmT/efSfA
lpc_rms=-24.72
sample=Violin2Solo_sustain_MF_A6.opus
</region>

<region>
hivel=127
key=B3
loop_end=283162
loop_mode=loop_continuous
loop_start=76468
loop_xfade=54587
lovel=0
lpc=csMbQcmv6sE4lC1CEssowleE/EGa/KrBtktxQewTQsH9Di5By7kVwSn60kC6R4rA9XtLQER3kL+vdaq/9CbaP0uLGz7bE5+/R4BmPycsnb7+Fyq/rtmlP5uLqb+mmgI/
lpc_rms=-26.96
sample=Violin2Solo_sustain_MF_B3.opus
</region>

<region>
hivel=127
key=B4
loop_end=282367
loop_mode=loop_continuous
loop_start=76253
loop_xfade=54434
lovel=0
lpc=aoSeQCrnLcH45jBBD/vWwF4rPUBCMs2/gSTmP09UAsCcH0JAgy9qwAUqbkAmdmnAbckgQKQnDb87mLi+uuZIPj4/BT5fII8+GaAfv2s3aj9h50K/kH9avoUgVT8B2bi+
lpc_rms=-29.13
sample=Violin2Solo_sustain_MF_B4.opus
</region>

<region>
hivel=127
key=B5
loop_end=275399
loop_mode=loop_continuous
loop_start=74372
loop_xfade=53090
lovel=0
lpc=f5zMQNt6q8C8k6lA1vwFwIlu+j+gxeo+AXewP4n3Yb7KeNQ/xvPvPYYQoD/3wIA+v8TAP4+1iz1H0KQ/2LUEPv901T8GbS+++5ydP4HC+D4QKKk/FfQSv5psWUDd7TvA
lpc_rms=-25.78
sample=Violin2Solo_sustain_MF_B5.opus
</region>

<region>
hivel=127
key=B6
loop_end=275817
loop_mode=loop_continuous
loop_start=74484
loop_xfade=53171
lovel=0
lpc=byUcQR8SB8FgzptAgt4BwD+AQT/IcfY+sKKXPx1CVL6rSCK/akHgP2+fBkByX+I9WWsUwRkO4UC7XQXAaYJFP8ANij+Ujgu/yG+gvoXYXD6r+qI/o6gKv0dXFsCcxbk/
lpc_rms=-28.42
sample=Violin2Solo_sustain_MF_B6.opus
</region>

<region>
hivel=127
key=C#4
loop_end=285305
loop_mode=loop_continuous
loop_start=77047
loop_xfade=55000
lovel=0
lpc=80lqQSgyLMJ8p3dCdHZywj6dNUIj/ejBlDKXQY/ifMEkkXBBI6lCwTvy0EDwc9C+JKA8wGEbS0AG2na/DO4Vv9k4Gj+Txrs/GlNFwB4zUUC/BZLAwxijQBAIasAoaa8/
lpc_rms=-20.45
sample=Violin2Solo_sustain_MF_C#4.opus
</region>

<region>
hivel=127
key=C#5
loop_end=283808
loop_mode=loop_continuous
loop_start=76642
loop_xfade=54712
lovel=0
lpc=a5w1QcIZ3sG/X/xBpu+3wbN4bkHklg7BfizjP98L1j95e/Q+/75PwIjUQ0DliPm/BN3QP6fqkT2qoLm/wxR3P4dBGb/xEe4/CRJ/vkCACsAOhbQ/F94vPlTveDxXUTY+
lpc_rms=-17.77
sample=Violin2Solo_sustain_MF_C#5.opus
</region>

<region>
hivel=127
key=C#6
loop_end=273251
loop_mode=loop_continuous
loop_start=73791
loop_xfade=52677
lovel=0
lpc=/Z8PQTCBocB/Q4FAJpbFv1Y2sz/eaiU+jRuPP/vMvr0F0oM/ixlAPw4mJT8ZskA+UtCJPzvhaD0wd10/sWHvPkDJjD+QHqu+b3z7P5aFQL+kxhtAvpugwKXOvb/YH4Y/
lpc_rms=-23.58
sample=Violin2Solo_sustain_MF_C#6.opus
</region>

<region>
hivel=127
key=C4
loop_end=286104
loop_mode=loop_continuous
loop_start=77262
loop_xfade=55154
lovel=0
lpc=IVcSQbDYysFtrAZC/J/qwe69okHHomLB2bI1QfzfH8HE5ANBep6+wA9rHkD3wIU/GVs7wKJWNkAqeDe//9AVwIDxOkAQK9I+/etOwOY5bkBQNF3Ael9PQCSlGMBYGWQ/
lpc_rms=-26.69
sample=Violin2Solo_sustain_MF_C4.opus
</region>

<region>
hivel=127
key=C5
loop_end=281686
loop_mode=loop_continuous
loop_start=76069
loop_xfade=54303
lovel=0
lpc=O6nIQCgCZMFskXJBv0QkwVQ3y0DX1GLAgCfOP/Owqb8uXLE/+FDmv++2K0CLNSjAVQ6QPwjobb6HH4c+7/VAPdIHgD/GMR/AIMgbQDZ01r8XZtg/wxtPvkunib/w+0o/
lpc_rms=-23.78
sample=Violin2Solo_sustain_MF_C5.opus
</region>

<region>
hivel=127
key=C6
loop_end=283656
loop_mode=loop_continuous
loop_start=76601
loop_xfade=54682
lovel=0
lpc=wmMQQUMAI8DnvRZAnkI5v2cYAD/ZD8Q9flAwP3I2+r3+nAY/5aHCPn3OKT3nPEA+U5DGPr94+T6YyQU+U1t7PibcaT1F5EE/mqWpviAuTj+N0j+9ctRyPz8++r86T7LA
lpc_rms=-26.84
sample=Violin2Solo_sustain_MF_C6.opus
</region>

<region>
hikey=E7
hivel=127
lokey=C7
loop_end=256996
loop_mode=loop_continuous
loop_start=69402
loop_xfade=49543
lovel=0
lpc=itqjQZ+6qsGM4w1BnVQKvuMvmD7zezlAqG0swEBE8j8Cz6c//AROv3AwFUHufLHBWxoLQUYbFUExXQvBQ6e7QK7Bf8BfzUNAMnOtPyRsyL95CTVA/xOwwIXIo0Bvja6/
lpc_rms=-27.36
pitch_keycenter=C7
sample=Violin2Solo_sustain_MF_C7.opus
</region>

<region>
hivel=127
key=D#4
loop_end=287874
loop_mode=loop_continuous
loop_start=77740
loop_xfade=55496
lovel=0
lpc=tOMaQdqs38HcNR1CUvUXwrQj+EGPqsTBQA2dQTxdfcEM6U9BLnAUwSRFgUCro1i/45mHv05IdUD9+5rAANcMQPs2jD84hQTA6kabP6JxnD0vFHW/rdhrP2kEIj4TmcS+
lpc_rms=-25.87
sample=Violin2Solo_sustain_MF_D#4.opus
</region>

<region>
hivel=127
key=D#5
loop_end=276347
loop_mode=loop_continuous
loop_start=74628
loop_xfade=53273
lovel=0
lpc=ApGRQDJVIsEQtE9BxiBRwY07RkEeXSPBMFvlQMQvmcDtt1dAjg6Gv8PBr7+7yOc/g/Muv3PI0b1QoRk/5L1Rv82yLj9lNG2+5nVsP8d3n7+bVaw/sVaFv5k4Uz8bkDa+
lpc_rms=-24.99
sample=Violin2Solo_sustain_MF_D#5.opus
</region>

<region>
hivel=127
key=D#6
loop_end=272472
loop_mode=loop_continuous
loop_start=73581
loop_xfade=52526
lovel=0
lpc=JWAdQf4zCsFOh9BA6GadPSMPjD9Kd7a+4kOLP/xurr64CZM+kVq1P9kYUr9aVIE/KP+3PZwnPT9g6qm9UK5WP1w3nD6voiu/UdAyQA91EsHgNo1AfKYqv7P/RMC/LAQ/
lpc_rms=-25.54
sample=Violin2Solo_sustain_MF_D#6.opus
</region>

<region>
hivel=127
key=D4
loop_end=285689
loop_mode=loop_continuous
loop_start=77150
loop_xfade=55074
lovel=0
lpc=cbs9Qcd+D8If6FlCHUFgwgo2MkIe/e7BYbuQQTizOMG1UORAf85UwLT6+75ll9w/jkoZv37+0L6s1hFAvAeiwKG+90CunQXBKGfqQNz3kMBvfxRAaLTOv78KnT+S4iO/
lpc_rms=-23.69
sample=Violin2Solo_sustain_MF_D4.opus
</region>

<region>
hivel=127
key=D5
loop_end=284384
loop_mode=loop_continuous
loop_start=76798
loop_xfade=54823
lovel=0
lpc=oDyeQFeTJcE/yj1B/yQiwaPZBkEYGLvA5/1AQJ+1+L8hwLQ/TOSevoY20b5yXJ0/f6ekv2MeHz1zmHc/oZE+vx/Hvj76FjK+RWusPuIGV74gERo/lSqJvkZV+j43oKK+
lpc_rms=-27.95
sample=Violin2Solo_sustain_MF_D5.opus
</region>

<region>
hivel=127
key=D6
loop_end=285638
loop_mode=loop_continuous
loop_start=77137
loop_xfade=55064
lovel=0
lpc=jXfRQK/eP8DkQFFAAOy8vyH/hD/wH/48q+2DP0xisb9SGdk/gaAUveVDKr6NKnM/0AUMvjCesz39wXM/DMl+PsBmEb8R4uY/Owe6v/B/D0Dkep7AmZSpvTc8VL+nr54+
lpc_rms=-28.29
sample=Violin2Solo_sustain_MF_D6.opus
</region>

<region>
hivel=127
key=E4
loop_end=273857
loop_mode=loop_continuous
loop_start=73955
loop_xfade=52793
lovel=0
lpc=OG4YQak57cHARjpC+qVCwoKxGEKccMLBkp9kQeALI8EbLg9BIabGwIjIrj/v+nI/WO3MP/W4gcDLbYFAns1HwPPeG0CyE+2/NX6PP8F2Pz6o+s6/PpMKQJrvxr+UA8M+
lpc_rms=-27.59
sample=Violin2Solo_sustain_MF_E4.opus
</region>

<region>
hivel=127
key=E5
loop_end=285247
loop_mode=loop_continuous
loop_start=77031
loop_xfade=54989
lovel=0
lpc=3Y2TQBh1CcGbyBVBjYECwddy8UCZotnAWoKqQBYtUcChMM8/ydmKv2Diqj+Gz4C+9hF1Pvtlqr5Re08/0huSv1xiwT/B7pi/UK5BP63foL4lDY4+UWtavmLH7j3npzk/
lpc_rms=-28.46
sample=Violin2Solo_sustain_MF_E5.opus
</region>

<region>
hivel=127
key=E6
loop_end=278928
loop_mode=loop_continuous
loop_start=75325
loop_xfade=53771
lovel=0
lpc=qJs5QRkbLcH9euBAiPk2wLTmjj/EhUU+ACcFQOCStL/aEAdAX/zTv35ZJkBdBAzAatUnQAPdpr+OMaU/v8rIvrMqlT/kn64+haAcwWIs3kAS0xPAkirvvhzPBEDLjuK/
lpc_rms=-28.92
sample=Violin2Solo_sustain_MF_E6.opus
</region>

<region>
hivel=127
key=F#4
loop_end=281625
loop_mode=loop_continuous
loop_start=76053
loop_xfade=54291
lovel=0
lpc=RZf0QCiDm8HFwrxBwGyfwUIGgEGL/0bBXtIBQf0nsMCjwKFAwzyQwG7ZDkDbgQq/hlCbP+DhAMAKwPg/DQpDwDOzV0BOaNq/cFQfPxvE3r5cxv28uv+qPv6PKjzdLy8+
lpc_rms=-24.74
sample=Violin2Solo_sustain_MF_F#4.opus
</region>

<region>
hivel=127
key=F#5
loop_end=282763
loop_mode=loop_continuous
loop_start=76360
loop_xfade=54510
lovel=0
lpc=nw+tQHYLT8FeyIVBfT1dwQkNF0FA3MbALY+NQDofIsCOiMQ/6jdIvgDR0r5NJoM/l8x1v53fAj/ks7s/4GpVwE1ngUDnnVbAaz9NQH/rTcBj4gtAV2SgPfDfWL9OvRY/
lpc_rms=-27.79
sample=Violin2Solo_sustain_MF_F#5.opus
</region>

<region>
hivel=127
key=F#6
loop_end=278455
loop_mode=loop_continuous
loop_start=75197
loop_xfade=53680
lovel=0
lpc=mDVLQbwSPMEOwt9A2aDFvn6eYz7vONQ/VnPAv413P0AzTkQ98eajP8ndVz4UR0E/GTKfP8P8AT+DLbS9o/8oQAxyN8HGjPdAgKvCvnHGScCnkCVADWcLwNroR0AvkwrA
lpc_rms=-25.19
sample=Violin2Solo_sustain_MF_F#6.opus
</region>

<region>
hivel=127
key=F4
loop_end=285274
loop_mode=loop_continuous
loop_start=77038
loop_xfade=54994
lovel=0
lpc=cvDGQI2rdcEez5VBa011wTafQkFx5CzBVh0DQchNqcCxBpBA/K6iwDiEekAPYOG/B0KNvik0fz/fJyG/ASeCvWz2lD77miY9NCXzPsxUnb9ug9g/FbDHv7KdUz+TgIW8
lpc_rms=-28.38
sample=Violin2Solo_sustain_MF_F4.opus
</region>

<region>
hivel=127
key=F5
loop_end=279515
loop_mode=loop_continuous
loop_start=75483
loop_xfade=53884
lovel=0
lpc=UsnKQJpIVsFHL2tBVX4twWJYAUHOurjAkY9zQCtVMMChlQNAuaIBv/NzkL8LPyVA6v5KwJss0D9fOoA/i2jMv6rOG0C+Vz3AR/xkQK7DJMAdfARAq6Drv0CI5z9i3Si/
lpc_rms=-25.07
sample=Violin2Solo_sustain_MF_F5.opus
</region>

<region>
hivel=127
key=F6
loop_end=276391
loop_mode=loop_continuous
loop_start=74639
loop_xfade=53282
lovel=0
lpc=4aT2QEK5rcCUyGNAnfMSwGpn5j8jLY4/ma8Mv+nrVj5Bcjw/5BynPnSXTj6POCw/RsAlPwBSHj0vCS0/gx+2vLvwwT/J6d3AmwVvQNGJk7+uEJM/nhnUPrUzBMC/t8s/
lpc_rms=-28.03
sample=Violin2Solo_sustain_MF_F6.opus
</region>

<region>
hivel=127
key=G#3
loop_end=284477
loop_mode=loop_continuous
loop_start=76823
loop_xfade=54841
lovel=0
lpc=QfrtQDxpqMGqtPFBMGLtwQuit0ELh3zBFwQ5QfECF8FR0fBApX6owDI7JkDV87K+0Y5RvmB5574zje0/G9tRwMK8RUBn3mO/y5MRv0hUaz9DX4m/x1KfPxcTk79Dlfk+
lpc_rms=-28.91
sample=Violin2Solo_sustain_MF_G#3.opus
</region>

<region>
hivel=127
key=G#4
loop_end=276858
loop_mode=loop_continuous
loop_start=74766
loop_xfade=53372
lovel=0
lpc=O0zYQHqbiMEYsaxBg3GXwfDVd0Ef7E7BtxEBQeJ4AMB0nQ/AULRFQEX6/r+9Nmc/YmYCP073+L+vLVJACRqPwKWXk0AktinAZbtIPwyNuj1agLW7DXClvmQgGz/sfBC/
lpc_rms=-28.21
sample=Violin2Solo_sustain_MF_G#4.opus
</region>

<region>
hivel=127
key=G#5
loop_end=274140
loop_mode=loop_continuous
loop_start=74032
loop_xfade=52848
lovel=0
lpc=SKquQOfO5sBcgtJAjNiPwAj9k0DzCQrAT8EBQNqYnr8eRws/pZUHQNOxyL8vhrM/Iq6aPTbi+r1Tw9o/fI4kv2hIBD9Tujo/vOChvt0CEEA6abu/nm5yP3X4874IE/s/
lpc_rms=-22.74
sample=Violin2Solo_sustain_MF_G#5.opus
</region>

<region>
hivel=127
key=G#6
loop_end=271124
loop_mode=loop_continuous
loop_start=73217
loop_xfade=52266
lovel=0
lpc=hec3Qe04LsFn++RAWeqRv+Dpl74YrixAtDMEwF+oD0CDCtu+ghaGP03kbj95PHY/cfFTPgMZTEDf7BDBDW5sQBe/RED9m47AwniDQJBMCsDqJNU/Oi9JPheM1j4ozas+
lpc_rms=-27.75
sample=Violin2Solo_sustain_MF_G#6.opus
</region>

<region>
hivel=127
key=G3
loop_end=277281
loop_mode=loop_continuous
loop_start=74880
loop_xfade=53453
lovel=0
lpc=P0EeQQET48GZBSBCVkYXwtgV4EHG5pfByLNLQfKA48BNYPU/IzS4P160T8DuKa9ARsv5wFdTFkHXm/vAJz6NQI43FsDtT0tAmeSGwEK9eEBON4bAK62fQHAIhsAkKNo/
lpc_rms=-27.03
sample=Violin2Solo_sustain_MF_G3.opus
</region>

<region>
hivel=127
key=G4
loop_end=285688
loop_mode=loop_continuous
loop_start=77150
loop_xfade=55074
lovel=0
lpc=PgbnQMLRlcGeaMJBRBehwZ9DU0H76wjBItW2QJsDjcCyeoFATtuEwM4TPkDYQva/NHi1Pypakb/78jo/aM+Pv7GB4j+dXp6/xEejP/8ztr/7ccY/1INnv8Di8T7Gfw6+
lpc_rms=-25.63
sample=Violin2Solo_sustain_MF_G4.opus
</region>

<region>
hivel=127
key=G5
loop_end=279499
loop_mode=loop_continuous
loop_start=75479
loop_xfade=53881
lovel=0
lpc=+72PQAf+CsGvrBtBfy37wH8XykCfvnjAWiUYQLNIn78+JKU/CwmfvxI/wz/gOIS/Pqe6P/BW3r+QQhBAz4zOv+lozz9ADcO/hZzgP/IpoL7scSe/QbKtP4PQpr9jE5g/
lpc_rms=-33.96
sample=Violin2Solo_sustain_MF_G5.opus
</region>

<region>
hivel=127
key=G6
loop_end=275867
loop_mode=loop_continuous
loop_start=74498
loop_xfade=53181
lovel=0
lpc=epD9QESqtcCJJiVA5AFSPqAiCsC/eV9ASsoMvwZLib8e3eI+cw76Psejaj86Fwa/OXTfP5/VWL+xuxxA/KrSwFERyz8KaSBATOE3wJDSc0CQs7S/0Ie4vwWFLkDrYjm8
lpc_rms=-29.11
sample=Violin2Solo_sustain_MF_G6.opus
</region>
</group>

<group>
group_label=FF
lpc_hicc1=127
lpc_locc1=85

<region>
hivel=127
key=A#3
loop_end=278573
loop_mode=loop_continuous
loop_start=75229
loop_xfade=53702
lovel=0
lpc=+0v8QNuztcGzuAFCGfrxwdUwqkGuSUnBK2AAQVqF6MDqvtJAtiZZwLsegb/kG1JAkcZkwGj4cEDQP0vAz+1CP5RfGECW5YzABGSxQFXYqsCTS4BAZwkpwDmp0T97qB+/
lpc_rms=-22.06
sample=Violin2Solo_sustain_FF_A#3.opus
</region>

<region>
hivel=127
key=A#4
loop_end=271041
loop_mode=loop_continuous
loop_start=73195
loop_xfade=52250
lovel=0
lpc=KhD7QN/FosF/icFBbpeEwVC5C0FcYcTAIAitQMf7g8BGZklAEykcwCXCoT/0+0a+0pmkP+91YcAuGJNAA1dPwPreDEDzIOK/A6NxPzHJgL3SqwO/qMybP1r/pb8x28A+
lpc_rms=-22.47
sample=Violin2Solo_sustain_FF_A#4.opus
</region>

<region>
hivel=127
key=A#5
loop_end=280829
loop_mode=loop_continuous
loop_start=75838
loop_xfade=54137
lovel=0
lpc=J+O2QNczOsBCu2RAVaBrP+KdyT9FyzM/cGU/QPetjb41Z/k/bYrUP6VlpD+1Qls/L8YUQK4F+z4k2RdAZOKfPRk5D0D5jbU/bAWdP9A/jD+u/BRAC+FxPmdyAUDbuQpA
lpc_rms=-19.28
sample=Violin2Solo_sustain_FF_A#5.opus
</region>

<region>
hivel=127
key=A#6
loop_end=276060
loop_mode=loop_continuous
loop_start=74550
loop_xfade=53218
lovel=0
lpc=B9MHQdO40r8/F4BAKsXaPsZUXkBKeVa/6rIPQGuuyzxQCCE/FuojQJcr+T9VaCNARM0IvuzVssDLlB1AbVUAwBA1kz89HOC/H7YtQBhRhb898AVAz66HvNJiyb7Zgse/
lpc_rms=-20.78
sample=Violin2Solo_sustain_FF_A#6.opus
</region>

<region>
hivel=127
key=A3
loop_end=283286
loop_mode=loop_continuous
loop_start=76501
loop_xfade=54611
lovel=0
lpc=Ih3IQK36g8G+va5ByBOZwas1VkF9/Q7ButriQEUtAsEdXBFBXYT1wG1Ym0CpvjLAKyHvPw3Pmr/GqEM/HqGwPfZKlr87igBAuADxv1jaBEBGy1fAwTKMQJvJWMB3g5Y/
lpc_rms=-23.58
sample=Violin2Solo_sustain_FF_A3.opus
</region>

<region>
hivel=127
key=A4
loop_end=273123
loop_mode=loop_continuous
loop_start=73757
loop_xfade=52652
lovel=0
lpc=z/HpQNEomsHxVsFB+6eRwZY5KUFD/wHBf1D3QGBRuMA86ThAk4ahvy/xmr63CIk/1i2KPk7z7r88gtA/gXoQPh9LDL9Q8Ci/SFABQE29zL/q5iU/4Mk4v/lKsD/DL1u/
lpc_rms=-24.35
sample=Violin2Solo_sustain_FF_A4.opus
</region>

<region>
hivel=127
key=A5
loop_end=284747
loop_mode=loop_continuous
loop_start=76896
loop_xfade=54893
lovel=0
lpc=ogNtQMSRb8BYa4JAwI//v+cYAUD1oKK+uG2hP7QEV7930bQ/nVQJP5NMgrzjguA+kPQ8P0c07D3UqIY/GQ3xPmXRCbu5oRE/beeUP56iZD1S7n69FvvLP7HwfL+No+c/
lpc_rms=-23.95
sample=Violin2Solo_sustain_FF_A5.opus
</region>

<region>
hivel=127
key=A6
loop_end=274396
loop_mode=loop_continuous
loop_start=74101
loop_xfade=52897
lovel=0
lpc=7N83QZVNBMFi8wNBwCGyv7AghkDppH8/LD5VP2E83T/bOTw/E0I3QMfBRkAanGY+tOqAQAtju8AGMbO/vzeXQKM/uMAi/GFAghZ7wMk1/D+Hr9++AoS9PhOi+j7MOSPA
lpc_rms=-20.13
sample=Violin2Solo_sustain_FF_A6.opus
</region>

<region>
hivel=127
key=B3
loop_end=281745
loop_mode=loop_continuous
loop_start=76085
loop_xfade=54314
lovel=0
lpc=B1n4QJnzrcFr+u5Bl9DWwbNak0ExQT3Bb08DQUR1wcBRHZVAHopSwKjYHD+cXPQ/h500wNb+NUAOxRLAfGmjvo3PekAIBpjAW5gVQEUjiT9/mWfAZmx1QFKIG8ArSlU/
lpc_rms=-21.48
sample=Violin2Solo_sustain_FF_B3.opus
</region>

<region>
hivel=127
key=B4
loop_end=272416
loop_mode=loop_continuous
loop_start=73566
loop_xfade=52515
lovel=0
lpc=mwG4QAoCRsHEA1ZB5yIZwSiY2ECSQIrABAzdP3IzQL/ytdc/xqGIv3KrND9e4Gq/EwsKQOLBMMBtuFVANApkwAtIRUBSBgbAvFMCQJutsb8MxIc+8FRuPUmlUD+Bj0q/
lpc_rms=-27.24
sample=Violin2Solo_sustain_FF_B4.opus
</region>

<region>
hivel=127
key=B5
loop_end=281772
loop_mode=loop_continuous
loop_start=76093
loop_xfade=54319
lovel=0
lpc=fXDnQGGyosDmEtpAi5tkwODCrEC6iPO/YlqDQDdJMb9bmPs/8Ey5P4hKjz80wHw/aZIMQHji6z6NwMM/HCChP/xSAUCbZZ69CgFOQP1nkb/tAYNAn7nKvzzIlUDH0ifA
lpc_rms=-18.41
sample=Violin2Solo_sustain_FF_B5.opus
</region>

<region>
hivel=127
key=B6
loop_end=269793
loop_mode=loop_continuous
loop_start=72858
loop_xfade=52010
lovel=0
lpc=qpoVQRIPlcCo/qtAq3X4v/fsSUBMkVA/6byEQB/c/j4L6g9Aic1LP4Z0SkClvXg+owXzwFS4TUDIoAvAQ6ZyP/wDbb/M6LO9kFdJwDqgiD71j/m/q16WP1CdVcBzdMs/
lpc_rms=-22.47
sample=Violin2Solo_sustain_FF_B6.opus
</region>

<region>
hivel=127
key=C#4
loop_end=285533
loop_mode=loop_continuous
loop_start=77108
loop_xfade=55044
lovel=0
lpc=Uw+rQe7VfcKAea9CszCgwhk9bUJcCSjC4TLyQYn9zME6qq9B9FohwYbGyMCztFBBThPkwNKQhL/vQKNAgy5iwG/knD9u8oy/s/aHQLXJr8Cu6Lw/DSTCP2fgmL+Iu0M+
lpc_rms=-15.51
sample=Violin2Solo_sustain_FF_C#4.opus
</region>

<region>
hivel=127
key=C#5
loop_end=271920
loop_mode=loop_continuous
loop_start=73432
loop_xfade=52420
lovel=0
lpc=rr1BQdum5cEzgwNCeQLKwQ5sdkGEoMbAbCnJvx1nQ0DuunI84FHBvznvtz6ecbm+fV81QDBQG8CxvrC+0njRP/IBsL5gljy/LVUZQHCTRsDbwBtARwU6wJUqQ0AH8iy/
lpc_rms=-17.59
sample=Violin2Solo_sustain_FF_C#5.opus
</region>

<region>
hivel=127
key=C#6
loop_end=279232
loop_mode=loop_continuous
loop_start=75407
loop_xfade=53829
lovel=0
lpc=rXkVQaFgzsDPbapAJbrRvzHqYkAHdZ2+wajkP1edvT92xac/QXCCP261xD9x3iw/yGQiQMkONj79js8/w2WbP9L42j8nzmQ/4/njP2xyxz7eIXBAT7+6wEStiD/3UqY/
lpc_rms=-21.22
sample=Violin2Solo_sustain_FF_C#6.opus
</region>

<region>
hivel=127
key=C4
loop_end=288935
loop_mode=loop_continuous
loop_start=78027
loop_xfade=55700
lovel=0
lpc=vKMQQadRxsEoRAJCakDhwXu+mkFwiUrBpOcVQcM6IcFt5jNBWiYdwfhCzkC6XHXA53QtQKmKJcAUj0ZAxqtjwLC4X0CQIOa/mrlWvqCsHkCptazApFjkQMuxr8A52OM/
lpc_rms=-20.26
sample=Violin2Solo_sustain_FF_C4.opus
</region>

<region>
hivel=127
key=C5
loop_end=282035
loop_mode=loop_continuous
loop_start=76164
loop_xfade=54370
lovel=0
lpc=QMyoQBS+O8FBekZBYz0Nwf8nrUAvHiLArktYP3fTlL8kVd0/dhx8vyuADr6NJx0+3DNLP79jwL+ivMI/PX7rviE9Hj52XQ2/iBkdPvODND9lpTy/hYpsP63cb7/Psf0+
lpc_rms=-26.14
sample=Violin2Solo_sustain_FF_C5.opus
</region>

<region>
hivel=127
key=C6
loop_end=278484
loop_mode=loop_continuous
loop_start=75205
loop_xfade=53685
lovel=0
lpc=Vf8AQanCn8D5JI5A8ZHrv0/zJUCzI5G/glEYQGsApb8tFs8/el1DPxw7kr17JDs/BDJ/P+17MT3I0YA/ocXxPiMiTD5wDcY/WUA4vwqt+j8n9oS/48cjQNLyRcDfG/G/
lpc_rms=-18.53
sample=Violin2Solo_sustain_FF_C6.opus
</region>

<region>
hikey=E7
hivel=127
lokey=C7
loop_end=278139
loop_mode=loop_continuous
loop_start=75111
loop_xfade=53619
lovel=0
lpc=qv2qQR7zasEo48tA8jwqPxc88j+3f1tAXsGeP8zOKEC+sTS/OzhvQPFgxEAyGrTBF7mJPhLjG0GcMdLAtuCKQN+sTsCkW8s9DHLGP+Kemr8oNE5AnP7qwJeUFkETBAhA
lpc_rms=-19.43
pitch_keycenter=C7
sample=Violin2Solo_sustain_FF_C7.opus
</region>

<region>
hivel=127
key=D#4
loop_end=289159
loop_mode=loop_continuous
loop_start=78087
loop_xfade=55743
lovel=0
lpc=gggFQYyVvcESiwVCaaT6wUq3tkH2c2vB1E0VQSrD1cCfcrRAhWuqwDjKoEB74YnABQ4pQCbEkb8SHRU/L3wFvy/irT91SNK/f+OxP8iufb/oXMu+c9jtP1oD5786Uyc/
lpc_rms=-20.37
sample=Violin2Solo_sustain_FF_D#4.opus
</region>

<region>
hivel=127
key=D#5
loop_end=285816
loop_mode=loop_continuous
loop_start=77185
loop_xfade=55099
lovel=0
lpc=dKKpQMJtOMGnIFpBfqMrwV332kBUwjPA9pMIv8sK9j9p+Ga/tGbMvs55ez9G05m/JylpP6Y6Nb/LNZM/6GGrv1+XuD9d7pi/xEOvPwrEX759lqG+UEL8PeWHQj8BGau+
lpc_rms=-27.38
sample=Violin2Solo_sustain_FF_D#5.opus
</region>

<region>
hivel=127
key=D#6
loop_end=268894
loop_mode=loop_continuous
loop_start=72615
loop_xfade=51836
lovel=0
lpc=OFrrQAdUmsDdj4xATcDLPuvjC0BLwc8+WVqXP5pZtz6FWmk/UZpgP3VXhT+QrQ+9KaANQDVvT7/fsANA9LYmPYm5mT93j/U+G0+0Px85qcB/TxxA46kgv+YDk7+zcky/
lpc_rms=-19.08
sample=Violin2Solo_sustain_FF_D#6.opus
</region>

<region>
hivel=127
key=D4
loop_end=288914
loop_mode=loop_continuous
loop_start=78021
loop_xfade=55696
lovel=0
lpc=5jc3QXSn/sFUPC1CkQ0lwvQgBELsVr3BFs92QVWRUMEYAllBBeZCwThVBUETaYbAaEDfPtthwz+ymJ4/lyDSwDVGGUGtj+zAOg1hQCqs+T9ju/XAUeoRQTigucD0Z8I/
lpc_rms=-21.32
sample=Violin2Solo_sustain_FF_D4.opus
</region>

<region>
hivel=127
key=D5
loop_end=279254
loop_mode=loop_continuous
loop_start=75413
loop_xfade=53834
lovel=0
lpc=z7y4QKI2NcGGIz1B3H4LwVRbz0BrwJTAcKMVQFjJ2r9YB8U/gEhOvyXbqj6bREY+s3MOvsxa/b5X5Mk/m9vrv/dSoT8dCDG/13iRP6s5Zr/TI+w+QWfOPmgiOj5+iQy+
lpc_rms=-27.57
sample=Violin2Solo_sustain_FF_D5.opus
</region>

<region>
hivel=127
key=D6
loop_end=283844
loop_mode=loop_continuous
loop_start=76652
loop_xfade=54719
lovel=0
lpc=uLXBQPC5CsCy6CRAHdSaPypXjT8qBno/PKNjP1GvLz+KI44/9kyOPyNpaj+JWSQ/dPuQP707LD/Mhn8/cHt/P652DT8habA/aDC9Puje6j/5BVPA9MALv/DMjT/RHM6/
lpc_rms=-21.78
sample=Violin2Solo_sustain_FF_D6.opus
</region>

<region>
hivel=127
key=E4
loop_end=283296
loop_mode=loop_continuous
loop_start=76504
loop_xfade=54613
lovel=0
lpc=K7z7QIZtqMGqpNVBJgOxweVdeEFTJC3B8YjHQIvGMsCGbrc+NaniPwIoNsC/NCBAma/bv814nj+aH4E9l9fxvx44YkC8aILAs79KQGWiB8CF474/FoR9v12oMj/MQp6+
lpc_rms=-22.99
sample=Violin2Solo_sustain_FF_E4.opus
</region>

<region>
hivel=127
key=E5
loop_end=281704
loop_mode=loop_continuous
loop_start=76074
loop_xfade=54306
lovel=0
lpc=1ZSjQOVzK8GMfFRBssM/wYsDI0FjzOXACDGYQB7RTcCCEh1A88IKwOmU0z/yBnK9hM0jv/zZJj/PlUm/sIKdP7Fk775emxa+XkGwPyPM+b+JGSNA8vMDwBqkvT8eb1q9
lpc_rms=-24.74
sample=Violin2Solo_sustain_FF_E5.opus
</region>

<region>
hivel=127
key=E6
loop_end=284736
loop_mode=loop_continuous
loop_start=76893
loop_xfade=54890
lovel=0
lpc=ynoDQZuxV8BCmVhAezMDv2fqMUDqZy8+p0kRQOkGuT4vCPA/jT2BP5jpij9mPLI/fCKuPz4vgj8sy4o/pEavP/1ooz9xqts/3ba6wE0zCUBb/7++yuqOPouVIr4oDpK8
lpc_rms=-19.13
sample=Violin2Solo_sustain_FF_E6.opus
</region>

<region>
hivel=127
key=F#4
loop_end=274026
loop_mode=loop_continuous
loop_start=74001
loop_xfade=52826
lovel=0
lpc=U8IWQRop2cGl+BhCFHEQwsZR3EG/4pLB4xE4QeevEcFXGvdAEKZvwOR2p78Q0ylAyex8v37Dbb+99htAxZZTwB8BakC4oFHAemYhQOZuf7/H5e2+UVplP2aUzbxOHY2+
lpc_rms=-23.50
sample=Violin2Solo_sustain_FF_F#4.opus
</region>

<region>
hivel=127
key=F#5
loop_end=275776
loop_mode=loop_continuous
loop_start=74473
loop_xfade=53163
lovel=0
lpc=hBzLQAs5a8EUQpBB90VtwdE/OEHNPBLBJoHWQMCJp8BW9a5AWMhawMmE6D42LABA1oILwGUi3z+IhuK9tZjEvxwoFkCrR+2/imjoPzgsFcDqXTFAKOxwv5S+H74jveQ+
lpc_rms=-25.53
sample=Violin2Solo_sustain_FF_F#5.opus
</region>

<region>
hivel=127
key=F#6
loop_end=280193
loop_mode=loop_continuous
loop_start=75666
loop_xfade=54015
lovel=0
lpc=21gnQUy78cBLC+RAo8AsPjx+WUBP9Uq+0NMpQLEQQ0AZH+s/iDAnQHOF7z+H7R9A1HQCQFjQKEBfyKE/nd6AQM128sBBIL5A5NTcvuBCP7/AW0k+cJaEP+4Wdj9vxJO/
lpc_rms=-17.44
sample=Violin2Solo_sustain_FF_F#6.opus
</region>

<region>
hivel=127
key=F4
loop_end=267803
loop_mode=loop_continuous
loop_start=72320
loop_xfade=51626
lovel=0
lpc=rz/qQGkrl8F3w7RBmh6MwVFVSkEkcyXBUofnQM7hmcBio45ALj9/wOO6K0Ccodm/NxWRP6CC0r/3yFxAmt+DwBraSkDOYc2/zmNCP/jwHb+laMw+GlySPaICNr9/PAg/
lpc_rms=-23.08
sample=Violin2Solo_sustain_FF_F4.opus
</region>

<region>
hivel=127
key=F5
loop_end=278382
loop_mode=loop_continuous
loop_start=75177
loop_xfade=53666
lovel=0
lpc=p0ykQFSoL8Gc0kxB7U0pwfdhDkFxoczAcgVpQIQ7JsA0BTZA/fAEwE+dkz/sbJu/TwDrP/DXDcBrXkJAJi0uwL5jDUCAkATAXPMwQOP1y79ndCQ/kUKuvvUbPT/Ht46+
lpc_rms=-25.37
sample=Violin2Solo_sustain_FF_F5.opus
</region>

<region>
hivel=127
key=F6
loop_end=269638
loop_mode=loop_continuous
loop_start=72816
loop_xfade=51980
lovel=0
lpc=6/m8QIx807+bymBAoAaMv5xgJECJkNQ/3D8PQONp3L2Qatc/K6cQPp+pjD/Yz6U+oQO3P3cYvT6ZMX8/Em7SPrqViD/WPovAdPqSP8of27/cwmU/hxQnvwDJ8L91pCe/
lpc_rms=-20.87
sample=Violin2Solo_sustain_FF_F6.opus
</region>

<region>
hivel=127
key=G#3
loop_end=281857
loop_mode=loop_continuous
loop_start=76115
loop_xfade=54336
lovel=0
lpc=z6buQDLPosEQbdxBJzLGwX/hiUGcpiXB/ADTQI5sv8CpAsBAgypnwIzp7b5UgihAiiHWv4LOGr/Ih0lA80CUwOJsnUDhyIrAWWlxQHELEMBD8qs+T8zPPmF/9bzwETO+
lpc_rms=-21.06
sample=Violin2Solo_sustain_FF_G#3.opus
</region>

<region>
hivel=127
key=G#4
loop_end=278511
loop_mode=loop_continuous
loop_start=75212
loop_xfade=53690
lovel=0
lpc=s4PnQMb7kcGpmbVBdqiJwWREIUGNatnAxkXKQA+p18A798hAKN+NwACCD0BiWkO/5tN6PxMMHcDhMFRA+xHlv5BRDj+JgqK+zxmQP+yfsr85IJg/nLXLvl47mL7navC8
lpc_rms=-23.47
sample=Violin2Solo_sustain_FF_G#4.opus
</region>

<region>
ampeg_attack=0.01
hivel=127
key=G#5
loop_end=204270
loop_mode=loop_continuous
loop_start=55163
loop_xfade=39378
lovel=0
lpc=9oN7QCW0ncBTRIdA3BsOwDS4CEAF646/Ml+WP8L/iz7DX6S/jRkRQOVgaL8oCDk/BZZJPq4PFL7X5Ko/P4hvv3aTMT/N6UY/sxX5vj16yT8EFqu/UrW6P7EHOb/3bpo/
lpc_rms=-23.21
sample=Violin2Solo_sustain_FF_G#5.opus
</region>

<region>
hivel=127
key=G#6
loop_end=275677
loop_mode=loop_continuous
loop_start=74447
loop_xfade=53144
lovel=0
lpc=U74kQSzRzcB+ObZAuYbwPhIGXb7T94NA8FYuPi0juj8x9RdAfIQMQCNhqj9V/xJAxedXPiiLc0DmXe7A0HUYQEdhB0Bw0GHACRJ2QExRFMBjoHE+UTQSP6CYVL5Ifpa/
lpc_rms=-20.99
sample=Violin2Solo_sustain_FF_G#6.opus
</region>

<region>
hivel=127
key=G3
loop_end=278911
loop_mode=loop_continuous
loop_start=75320
loop_xfade=53768
lovel=0
lpc=o6kgQbJZ3MH+kQ9CoAnqwTtZj0Hyy0PBvpoyQZDSLcEWNydB3VwDwZj7lEDc0ty/sm0dP9pWfL6NNcg/x591wPtcqkDqeYDALE7zP734AMCp9AFAGqGKvrG1q7/CP2Y/
lpc_rms=-19.92
sample=Violin2Solo_sustain_FF_G3.opus
</region>

<region>
hivel=127
key=G4
loop_end=284127
loop_mode=loop_continuous
loop_start=76728
loop_xfade=54773
lovel=0
lpc=GuXLQBrEe8GW4ZZBQGpiwVSGDUHvf8PAAAWJQBpokcC8pMZAaPTYwEYtkUDHyvS/W65CP2Vfjb/Ua9g/0l//vz9WFUBvRP2/VATZPxGEoL/fpjE/yUgaPsv2FL7JqQC9
lpc_rms=-24.96
sample=Violin2Solo_sustain_FF_G4.opus
</region>

<region>
hivel=127
key=G5
loop_end=278171
loop_mode=loop_continuous
loop_start=75120
loop_xfade=53625
lovel=0
lpc=rGYxQLaJasDbpUJAsxDuv+NDE0BGJ/6/Xx4JQNZ7yb9saB4/rd8CP0FOFb4zisg+CgCuvp3fCD/zs9K+UuOWPyA/iL+YmWM/zKYqv8IUsD/sx4m/KiewP5c2vr9TvYc/
lpc_rms=-25.31
sample=Violin2Solo_sustain_FF_G5.opus
</region>

<region>
hivel=127
key=G6
loop_end=276271
loop_mode=loop_continuous
loop_start=74607
loop_xfade=53259
lovel=0
lpc=vLX6QG0UfcABiVdATpWlP4914j8Br8o/Hys2P8aetD+qQh0/bQfZP8JmyT/vRkc/cToOQEiJgz5/pmlAPyizwOwxuj/o3Lk///bKv2TaHT967jW/RdjIPjZWYz4VoCo/
lpc_rms=-21.32
sample=Violin2Solo_sustain_FF_G6.opus
</region>
</group>